<?xml version="1.0" standalone="no"?>
<!DOCTYPE svg PUBLIC "-//W3C//DTD SVG 20010904//EN"
 "http://www.w3.org/TR/2001/REC-SVG-20010904/DTD/svg10.dtd">
<svg version="1.0" xmlns="http://www.w3.org/2000/svg"
 width="512.000000pt" height="512.000000pt" viewBox="0 0 512.000000 512.000000"
 preserveAspectRatio="xMidYMid meet">
<metadata>
Created by potrace 1.11, written by Peter Selinger 2001-2013
</metadata>
<g transform="translate(0.000000,512.000000) scale(0.100000,-0.100000)"
fill="#000000" stroke="none">
<path d="M2445 5108 c-146 -27 -305 -150 -374 -289 -22 -43 -45 -104 -51 -135
-17 -82 -8 -225 18 -299 55 -151 194 -290 335 -335 l37 -12 0 -264 0 -264
-768 0 c-852 0 -823 2 -953 -66 -134 -70 -251 -231 -278 -378 -8 -41 -11 -463
-11 -1316 0 -1221 1 -1259 20 -1334 25 -101 69 -176 144 -252 76 -75 151 -119
252 -144 75 -20 114 -20 1743 -20 1849 0 1728 -4 1865 68 128 67 228 190 273
337 17 57 18 126 18 1350 0 1223 -1 1293 -18 1349 -61 196 -208 343 -392 391
-51 13 -170 15 -827 15 l-768 0 0 263 0 262 77 35 c238 106 368 376 305 628
-12 46 -36 109 -54 140 -40 72 -148 179 -215 215 -107 57 -255 79 -378 55z
m198 -304 c64 -22 131 -89 152 -155 66 -197 -113 -375 -319 -318 -52 14 -141
103 -155 155 -58 209 122 386 322 318z m1614 -1609 c59 -25 96 -59 128 -116
l30 -54 3 -1244 c3 -1387 6 -1313 -65 -1392 -67 -74 -96 -83 -280 -87 l-163
-4 0 349 c0 330 -1 350 -20 381 -11 18 -34 41 -52 52 -32 20 -53 20 -1278 20
-1194 0 -1247 -1 -1280 -19 -20 -10 -44 -36 -57 -61 -23 -42 -23 -49 -23 -382
l0 -338 -143 0 c-173 0 -217 12 -281 76 -82 81 -77 -19 -74 1400 l3 1259 22
40 c28 52 68 89 123 114 45 20 57 21 1708 21 1471 0 1667 -2 1699 -15z m-2247
-2645 l0 -250 -255 0 -255 0 0 250 0 250 255 0 255 0 0 -250z m800 0 l0 -250
-250 0 -250 0 0 250 0 250 250 0 250 0 0 -250z m800 0 l0 -250 -250 0 -250 0
0 250 0 250 250 0 250 0 0 -250z"/>
<path d="M1626 2694 c-88 -21 -193 -81 -261 -149 -214 -214 -212 -561 4 -775
301 -298 796 -165 917 246 52 179 -5 393 -141 529 -136 136 -336 193 -519 149z
m240 -312 c92 -47 153 -160 139 -257 -11 -67 -61 -144 -119 -180 -44 -27 -58
-30 -131 -30 -73 0 -87 3 -131 30 -58 36 -108 113 -119 180 -17 116 63 236
185 276 40 13 133 3 176 -19z"/>
<path d="M3222 2690 c-99 -26 -174 -71 -252 -149 -77 -79 -114 -142 -140 -247
-48 -188 -1 -369 136 -513 212 -225 564 -230 784 -11 220 221 214 572 -13 786
-143 136 -327 183 -515 134z m245 -303 c116 -60 168 -182 132 -311 -14 -52
-103 -141 -155 -155 -207 -57 -385 121 -319 319 22 65 84 131 146 153 53 20
151 17 196 -6z"/>
</g>
</svg>
